<?xml version="1.0" encoding="utf-8"?>
<!-- Generator: Adobe Illustrator 19.2.1, SVG Export Plug-In . SVG Version: 6.00 Build 0)  -->
<svg version="1.1" id="logo" xmlns="http://www.w3.org/2000/svg" xmlns:xlink="http://www.w3.org/1999/xlink" x="0px" y="0px"
	 viewBox="0 0 255 90" style="enable-background:new 0 0 255 90;" xml:space="preserve">
<style type="text/css">
	.st0{fill:#252525;}
	.st1{fill:#FFFFFF;}
	.st2{fill:#BFBFBF;}
	.st3{clip-path:url(#SVGID_2_);fill:#BFBFBF;}
	.st4{clip-path:url(#SVGID_2_);fill:#252525;}
	.st5{clip-path:url(#SVGID_2_);}
	.st6{clip-path:url(#SVGID_4_);fill:#252525;}
	.st7{clip-path:url(#SVGID_6_);fill:#BFBFBF;}
	.st8{clip-path:url(#SVGID_6_);fill:#252525;}
	.st9{fill:#3953A3;}
	.st10{fill:#C6202A;}
	.st11{fill:none;stroke:#FFFFFF;stroke-width:0.25;stroke-miterlimit:10;}
</style>
<g>
	<path class="st0" d="M72.5,33.1c0.7-1.5,1.5-2.5,1.6-2.6l1.5,1.3c0,0-1.1,1.1-1.7,2.7"/>
	<polygon class="st1" points="0,79.1 0,14.9 13.5,11.5 13.4,38.8 36.1,16.9 47.8,21.4 31.3,39.7 42.3,79.6 30.4,79.6 21.6,49.1 
		13.3,57.2 13.5,79.6 	"/>
	<g>
		<path class="st1" d="M92.6,51.1C92.6,51,92.6,51.3,92.6,51.1C92.6,51.3,92.6,51,92.6,51.1z"/>
		<path class="st1" d="M92.6,51.1C92.6,51,92.6,51.2,92.6,51.1C92.6,51.2,92.6,51,92.6,51.1z"/>
		<path class="st1" d="M92.6,51.1C92.6,50.9,92.7,51.4,92.6,51.1C92.7,51.4,92.6,50.9,92.6,51.1z"/>
		<path class="st1" d="M92.6,51.1C92.6,51.1,92.6,51.2,92.6,51.1C92.6,51.2,92.6,51.1,92.6,51.1z"/>
		<path class="st1" d="M92.6,51.1C92.6,51.3,92.6,51.3,92.6,51.1L92.6,51.1z"/>
		<path class="st1" d="M92.6,51.1C92.6,51,92.7,51.3,92.6,51.1C92.7,51.4,92.6,51,92.6,51.1z"/>
		<path class="st1" d="M92.6,51.1C92.6,51.1,92.6,51.2,92.6,51.1C92.6,51.2,92.6,51.1,92.6,51.1z"/>
		<path class="st1" d="M92.6,51.1C92.6,50.9,92.7,51.3,92.6,51.1C92.7,51.3,92.6,51,92.6,51.1z"/>
		<path class="st1" d="M92.6,51.1C92.6,50.9,92.7,51.3,92.6,51.1C92.7,51.4,92.6,50.9,92.6,51.1z"/>
		<path class="st1" d="M92.6,51.1C92.6,51.1,92.6,51.1,92.6,51.1C92.6,51.1,92.6,51.1,92.6,51.1z"/>
		<path class="st1" d="M92.6,51.1C92.6,51.1,92.6,51.2,92.6,51.1C92.6,51.2,92.6,51.1,92.6,51.1z"/>
		<path class="st1" d="M92.6,51.1C92.6,51.1,92.6,51.2,92.6,51.1C92.6,51.1,92.6,51.1,92.6,51.1z"/>
		<path class="st1" d="M92.6,51.1C92.6,51,92.6,51.2,92.6,51.1C92.6,51.2,92.6,51,92.6,51.1z"/>
		<path class="st1" d="M92.6,51.1C92.6,50.8,92.7,51.6,92.6,51.1C92.7,51.5,92.6,50.7,92.6,51.1z"/>
		<path class="st1" d="M92.6,51.1C92.6,51.1,92.6,51.2,92.6,51.1C92.6,51.2,92.6,51.1,92.6,51.1z"/>
		<path class="st1" d="M98.2,74.7h11.8l-4.4-31.4c-1.7-18.4-8.4-18.4-20.9-14.4L84.5,0L73,3.1l1.8,71.2l11.3,0.4l-0.7-36.8
			c2.5-1.1,10.7-3.4,10.9,5.7l1.1,12.9L98.2,74.7z"/>
	</g>
	<polygon class="st1" points="240.7,75 237.3,82.9 244.4,87.8 251.3,83.6 248.4,75 	"/>
	<polygon class="st1" points="231.2,7 255,11.6 245.8,70.6 	"/>
	<path class="st1" d="M45,29.2l3.2,8.3c7.8-4.7,12.2,0,12.2,0l-0.1,5.3C37,47,42.9,68.8,42.9,68.8c2.4,8.5,10,8.3,10,8.3l17.5,0
		l0.3-39.6C68,18.9,45,29.2,45,29.2z M60.3,69.4c0,0-8.4,2.1-9.4-6.3c0,0,0.2-12.9,9.7-11.5L60.3,69.4z"/>
	<g>
		<g>
			<g>
				<path class="st0" d="M73.9,34.5c-0.6,1.7-0.9,3.8,0.5,5.1c2.4,2.3,19-1,34-13.9c11.8-10.2,24-19.6,32.4-13.1
					c6.4,4.9,2.8,14.2,0,18.4l-1.5-1c0.1-0.1,7-10.9,0.4-16c-6.5-5-16.7,1.7-30.1,13.1c-13.1,11.1-31.7,18-36.4,13.8
					c-2.4-2.1-1.7-5.4-0.6-7.8"/>
			</g>
			<path class="st2" d="M128.8,62.2l-8.4-8.5c-2.5-2.5-2.5-6.6,0.1-9.1l17.2-16.9l17.5,17.7L138,62.3
				C135.4,64.8,131.3,64.7,128.8,62.2z"/>
			<path class="st1" d="M132.9,66.9l-13.3-14c-0.6-0.6-0.6-1.6,0-2.2l20.7-20.4l15.8,16.9l-21,19.7
				C134.5,67.6,133.5,67.6,132.9,66.9z"/>
		</g>
		<g>
			<polygon class="st1" points="142.5,59.3 156.8,60.4 158.4,52.6 151.7,50.3 			"/>
			<polygon class="st0" points="158.4,52.6 162.7,52.7 163.1,48.8 165.5,48.5 165.7,49.6 169.2,51.9 167.9,57.9 156.8,60.4 			"/>
		</g>
		<path class="st1" d="M111.7,67.9l5.2,14c1.4-1.8,2.3-3.8,2.1-6.3c7.1-2.1,13.8-5.6,20.1-10.1l-6.4-7.3
			C126.5,62.5,119.7,65.6,111.7,67.9z"/>
		<g>
			<defs>
				<path id="SVGID_1_" d="M111.7,67.9l5.2,14c1.4-1.8,2.3-3.8,2.1-6.3c7.1-2.1,13.8-5.6,20.1-10.1l-6.4-7.3
					C126.5,62.5,119.7,65.6,111.7,67.9z"/>
			</defs>
			<clipPath id="SVGID_2_">
				<use xlink:href="#SVGID_1_"  style="overflow:visible;"/>
			</clipPath>
			<path class="st3" d="M110.6,67.1l0.7,2.7c0,0,7.3-1.6,13.1-4.4c5.8-2.8,11.2-7,11.2-7l-1.2-2.1L110.6,67.1z"/>
			<polygon class="st4" points="126.3,79 115.5,83.2 110.1,65.5 116.6,64.4 			"/>
		</g>
		<g>
			<path class="st1" d="M126,51.4l13.1,14c5.8-4.4,10.7-8.9,14.1-13.6l-17.5-16.3l-6.5,10.7L126,51.4z"/>
			<path class="st2" d="M126,51.4l5.8,6.7c6.7-6.3,6.8-12,10.2-16.8l-6.3-5.9l-6.5,10.7L126,51.4z"/>
		</g>
		<g>
			<path class="st1" d="M122.1,43.9l2.6-8.1l10.5,1.4l0,0.1c5.8,1.5,2.8,13.1-4.8,11.1l0,0L122.1,43.9z"/>
			<polygon class="st0" points="124.7,35.9 117.4,35.2 111.2,40.3 114.2,43.3 114.3,44.6 116.6,44.8 117.6,43.2 122.1,43.9 			"/>
		</g>
		<polygon class="st0" points="126.2,51 125.8,51.7 129.7,61.6 138.6,65.8 139.1,65.5 		"/>
		<path class="st1" d="M110.3,54.6c-1.7,1.1-4.8,2.1-5.7,1.6l10.7-10.1c2.6,3.1,6.6,6.7,10.6,5.7l4.6,10.3
			C122.4,63.4,115.8,61.2,110.3,54.6z"/>
		<g>
			<defs>
				<path id="SVGID_5_" d="M110.3,54.6c-1.7,1.1-4.8,2.1-5.7,1.6l10.7-10.1c2.6,3.1,6.6,6.7,10.6,5.7l4.6,10.3
					C122.4,63.4,115.8,61.2,110.3,54.6z"/>
			</defs>
			<clipPath id="SVGID_4_">
				<use xlink:href="#SVGID_5_"  style="overflow:visible;"/>
			</clipPath>
			<path style="clip-path:url(#SVGID_4_);fill:#BFBFBF;" d="M113.2,46.4c0,0,4.2,5.4,7.9,6.5c3.9,1.2,8.3,0,8.3,0l-0.9-2l-13.7-5.7
				L113.2,46.4z"/>
			<polygon class="st6" points="103.4,56.1 115.3,44.9 120,48.9 112.1,60.4 			"/>
		</g>
		<g>
			<path class="st2" d="M158.1,45.1L158.1,45.1c-1.1,0.8-2.4,1.3-3.6,1.6c-3.7,0.8-7.8-0.6-10.1-3.9c-3.1-4.4-2.1-10.6,2.3-13.7
				c2.3-1.7,5.2-2.2,7.8-1.6c2.3,0.5,4.5,1.8,6,3.9c0.5,0.7,0.9,1.5,1.2,2.3C163.1,37.7,161.8,42.4,158.1,45.1z"/>
			<path class="st1" d="M158.1,45.1L158.1,45.1c-1.1,0.8-2.4,1.3-3.6,1.6c-2.3-0.5-4.5-1.8-6-3.9c-3.1-4.4-2.1-10.6,2.3-13.7
				c1.1-0.8,2.3-1.3,3.6-1.6c2.3,0.5,4.5,1.8,6,3.9c0.5,0.7,0.9,1.5,1.2,2.3C163.1,37.7,161.8,42.4,158.1,45.1z"/>
			<path class="st0" d="M161.6,33.6c1.5,4.1,0.2,8.8-3.5,11.4c-1.4,0-2.8-0.2-4.3-0.7c-2-0.7-4.2-1.4-5.4-2.7l2-9.7
				c2.1-0.7,5.2-0.9,7.8,0C159.5,32.3,160.6,32.9,161.6,33.6z"/>
			<polygon class="st0" points="143,42.3 144,41.7 150.4,46.4 149,47.9 			"/>
		</g>
		<g>
			
				<rect x="164.5" y="3.7" transform="matrix(0.9976 6.936504e-02 -6.936504e-02 0.9976 3.4034 -11.3321)" class="st0" width="0.7" height="79.4"/>
			<polygon class="st0" points="203.5,37.7 165.1,35.1 167.3,3.7 206.5,7.6 			"/>
			
				<ellipse transform="matrix(6.936504e-02 -0.9976 0.9976 6.936504e-02 152.2635 204.7419)" class="st9" cx="185.9" cy="20.8" rx="12.1" ry="12.1"/>
			<path class="st10" d="M169.1,21.6c12.6-2.7,24-5.8,32.3-10c-5.8,8.6-16.8,14.5-25.3,20.6c5.3-5.8,13.9-8.9,16.9-14.1L169.1,21.6z
				"/>
			
				<ellipse transform="matrix(0.8695 -0.4939 0.4939 0.8695 14.5676 95.0155)" class="st11" cx="187.1" cy="19.9" rx="4.4" ry="10.1"/>
		</g>
		<rect x="140" y="55.6" transform="matrix(0.6991 0.715 -0.715 0.6991 84.1303 -84.2594)" class="st0" width="4.4" height="4.4"/>
		
			<rect x="145.1" y="51.2" transform="matrix(-1.125370e-02 0.9999 -0.9999 -1.125370e-02 201.7666 -93.2919)" class="st0" width="3.8" height="3.8"/>
		<ellipse transform="matrix(0.715 -0.6991 0.6991 0.715 2.0936 111.2599)" class="st0" cx="137.5" cy="53.1" rx="2.5" ry="2.5"/>
		<polygon class="st0" points="138.7,48 144.1,46.8 142.7,51.9 		"/>
	</g>
	<path class="st1" d="M191.6,26.1l1.9,13.4h8.1l0.6,31.8c0,0-1.3,11.4,16,8.8c0,0,5.4-1.6,5.2-5.4V62.1c0,0-3.6,2.2-7.6,2.2
		c-3.9,0-4-1.9-4-1.9l-1.1-24.6l12.6-0.7V29l-12.9-0.9l0.2-16.7l-9-3.7l0,18.8L191.6,26.1z"/>
</g>
</svg>
